<?xml version="1.0" encoding="UTF-8"?>
<svg version="1.1" xmlns="http://www.w3.org/2000/svg" width="425" height="196">
<path d="M0 0 C0 0.66 0 1.32 0 2 C1.32 1.67 2.64 1.34 4 1 C6.33242359 4.49863538 6.24831712 5.87901109 6.24291992 10.01269531 C6.24753487 11.87042572 6.24753487 11.87042572 6.25224304 13.76568604 C6.2453418 15.11983422 6.23807457 16.47398059 6.23046875 17.828125 C6.22927594 19.21954302 6.228824 20.61096186 6.2290802 22.00238037 C6.22751568 24.9210717 6.21923241 27.83964033 6.20581055 30.75830078 C6.18888393 34.48489336 6.18499454 38.21135033 6.18575573 41.93797684 C6.18548257 44.81373368 6.17997695 47.68946135 6.17275429 50.56520844 C6.16958838 51.93821746 6.16760511 53.31122977 6.16686058 54.68424225 C6.16467123 56.61274921 6.1550978 58.54124343 6.14526367 60.46972656 C6.13954597 62.11161957 6.13954597 62.11161957 6.13371277 63.78668213 C5.98983291 67.24433044 5.54238182 70.58403809 5 74 C0.38 74.33 -4.24 74.66 -9 75 C-9.33 73.68 -9.66 72.36 -10 71 C-10.55945313 71.47953125 -11.11890625 71.9590625 -11.6953125 72.453125 C-16.2411121 75.50420406 -22.00212858 75.15078275 -27.3125 74.75 C-30.34455476 73.90384518 -32.50400314 72.92548329 -35 71 C-35.8125 68.8125 -35.8125 68.8125 -36 67 C-36.66 67 -37.32 67 -38 67 C-38 65.68 -38 64.36 -38 63 C-38.66 63 -39.32 63 -40 63 C-40.19647038 60.31288976 -40.38239615 57.62571669 -40.5625 54.9375 C-40.61857422 54.18533203 -40.67464844 53.43316406 -40.73242188 52.65820312 C-41.04000617 47.92140498 -40.83807173 43.67457788 -40 39 C-40.66 39 -41.32 39 -42 39 C-41.34 36.69 -40.68 34.38 -40 32 C-39.34 32 -38.68 32 -38 32 C-37.95875 31.278125 -37.9175 30.55625 -37.875 29.8125 C-36.62659096 25.79975666 -34.37463147 24.40118009 -31 22 C-26.20288951 19.64168897 -22.17562504 19.91119898 -16.9375 20.125 C-13.85684383 19.99390825 -11.77188507 19.3044165 -9 18 C-9 15.69 -9 13.38 -9 11 C-9.66 11 -10.32 11 -11 11 C-11.48076923 4.75 -11.48076923 4.75 -9.4375 1.5625 C-6.18129203 -0.5248128 -3.79004984 -0.2915423 0 0 Z M-21 33 C-21 33.99 -21 34.98 -21 36 C-21.9590625 36.433125 -21.9590625 36.433125 -22.9375 36.875 C-25.15206079 37.82823451 -25.15206079 37.82823451 -26 40 C-26.1509482 42.45290828 -26.23128564 44.85858009 -26.25 47.3125 C-26.27578125 48.62863281 -26.3015625 49.94476563 -26.328125 51.30078125 C-25.98528315 55.16591501 -25.36079233 56.97178741 -23 60 C-20.19265527 62.2973659 -20.19265527 62.2973659 -17.0625 61.875 C-13.39260898 60.82645971 -12.24955416 60.07934706 -10 57 C-9.45862891 53.98718499 -9.53237951 51.05160131 -9.625 48 C-9.62693359 46.78957031 -9.62693359 46.78957031 -9.62890625 45.5546875 C-9.68934105 41.48541064 -9.78890334 38.53183125 -12 35 C-15.4352048 32.70986347 -16.985331 32.82157027 -21 33 Z " fill="#4F4B62" transform="translate(306,59)"/>
<path d="M0 0 C0.68900391 0.00386719 1.37800781 0.00773437 2.08789062 0.01171875 C2.76529297 0.00785156 3.44269531 0.00398438 4.140625 0 C12.53919835 0.0164195 12.53919835 0.0164195 15.77539062 2.94921875 C16.43539062 3.67109375 17.09539062 4.39296875 17.77539062 5.13671875 C18.49726563 5.79671875 19.21914063 6.45671875 19.96289062 7.13671875 C21.88741154 9.26032804 22.12434096 10.43951301 22.77539062 13.13671875 C23.76539063 13.46671875 24.75539063 13.79671875 25.77539062 14.13671875 C26.87767758 18.54586658 26.85193598 22.62054276 26.77539062 27.13671875 C27.10539062 27.13671875 27.43539062 27.13671875 27.77539062 27.13671875 C27.77539062 29.11671875 27.77539062 31.09671875 27.77539062 33.13671875 C16.55539062 33.13671875 5.33539063 33.13671875 -6.22460938 33.13671875 C-3.08962501 39.53571449 -3.08962501 39.53571449 2.77539062 42.13671875 C5.01064098 42.823085 5.01064098 42.823085 6.77539062 43.13671875 C7.10539062 42.14671875 7.43539063 41.15671875 7.77539062 40.13671875 C11.15039062 39.01171875 11.15039062 39.01171875 14.77539062 38.13671875 C15.76539063 37.80671875 16.75539063 37.47671875 17.77539062 37.13671875 C20.44205729 39.80338542 23.10872396 42.47005208 25.77539062 45.13671875 C23.9603811 48.7667378 21.62276099 50.7601097 17.92773438 52.40234375 C8.16800451 55.3907422 -0.75839515 57.27879732 -10.21679688 52.46484375 C-14.74111167 49.47210634 -17.48228283 45.93951178 -19.53710938 40.94921875 C-23.14027203 20.96804405 -23.14027203 20.96804405 -19.22460938 13.13671875 C-18.56460937 13.13671875 -17.90460938 13.13671875 -17.22460938 13.13671875 C-16.97710937 12.39421875 -16.72960937 11.65171875 -16.47460938 10.88671875 C-15.10179699 7.86653151 -13.77640845 6.23820034 -11.22460938 4.13671875 C-9.03710938 3.51171875 -9.03710938 3.51171875 -7.22460938 3.13671875 C-6.89460938 2.47671875 -6.56460937 1.81671875 -6.22460938 1.13671875 C-4.49708673 -0.59080389 -2.2999996 0.00452311 0 0 Z M0.77539062 12.13671875 C0.44539063 13.12671875 0.11539062 14.11671875 -0.22460938 15.13671875 C-2.28710938 16.32421875 -2.28710938 16.32421875 -4.22460938 17.13671875 C-4.22460938 17.79671875 -4.22460938 18.45671875 -4.22460938 19.13671875 C-4.88460938 19.13671875 -5.54460937 19.13671875 -6.22460938 19.13671875 C-6.22460938 20.12671875 -6.22460938 21.11671875 -6.22460938 22.13671875 C-0.28460938 22.13671875 5.65539062 22.13671875 11.77539062 22.13671875 C11.77539062 21.14671875 11.77539062 20.15671875 11.77539062 19.13671875 C11.11539063 19.13671875 10.45539063 19.13671875 9.77539062 19.13671875 C9.37320312 18.23953125 9.37320312 18.23953125 8.96289062 17.32421875 C7.75238729 15.09434418 6.78401163 13.68181183 4.77539062 12.13671875 C3.45539063 12.13671875 2.13539063 12.13671875 0.77539062 12.13671875 Z M18.77539062 40.13671875 C19.43539062 40.79671875 20.09539062 41.45671875 20.77539062 42.13671875 C20.77539062 41.47671875 20.77539062 40.81671875 20.77539062 40.13671875 C20.11539063 40.13671875 19.45539063 40.13671875 18.77539062 40.13671875 Z " fill="#4E4A61" transform="translate(340.224609375,78.86328125)"/>
<path d="M0 0 C0.70705078 -0.01611328 1.41410156 -0.03222656 2.14257812 -0.04882812 C6.42507559 -0.05284925 8.82880368 0.33214436 11.9375 3.3125 C12.76314453 3.92931641 12.76314453 3.92931641 13.60546875 4.55859375 C17.7452645 7.80444903 17.7452645 7.80444903 18.8125 10.625 C18.85375 11.181875 18.895 11.73875 18.9375 12.3125 C19.5975 12.3125 20.2575 12.3125 20.9375 12.3125 C22.92661307 18.08406038 23.1826155 23.17492741 23.0625 29.25 C23.05347656 30.12462891 23.04445313 30.99925781 23.03515625 31.90039062 C23.0117957 34.03788064 22.97593247 36.17522786 22.9375 38.3125 C22.6075 38.3125 22.2775 38.3125 21.9375 38.3125 C21.710625 39.34375 21.48375 40.375 21.25 41.4375 C19.7513378 46.48401557 17.33832226 49.86573584 12.84375 52.57421875 C5.95389565 55.76189487 -0.58408279 55.73447965 -8.0625 55.3125 C-8.0625 54.6525 -8.0625 53.9925 -8.0625 53.3125 C-8.949375 53.250625 -9.83625 53.18875 -10.75 53.125 C-14.85851121 52.11725197 -16.30060132 50.44762823 -19.0625 47.3125 C-19.64 46.85875 -20.2175 46.405 -20.8125 45.9375 C-24.11112837 41.64928312 -23.41335197 33.66295939 -23.75 28.3125 C-23.80994141 27.54421875 -23.86988281 26.7759375 -23.93164062 25.984375 C-24.40207087 18.40593713 -22.95491153 12.32317702 -18.0625 6.3125 C-15.3125 4.9375 -15.3125 4.9375 -13.0625 4.3125 C-13.0625 3.6525 -13.0625 2.9925 -13.0625 2.3125 C-8.73911012 0.18887797 -4.72888395 -0.02167225 0 0 Z M-6.0625 15.3125 C-10.15814615 20.92505213 -9.70356449 27.66041519 -9.0625 34.3125 C-8.13216493 37.11447867 -8.13216493 37.11447867 -7.0625 39.3125 C-6.4025 39.3125 -5.7425 39.3125 -5.0625 39.3125 C-5.0625 39.9725 -5.0625 40.6325 -5.0625 41.3125 C-3.0825 41.6425 -1.1025 41.9725 0.9375 42.3125 C0.9375 41.6525 0.9375 40.9925 0.9375 40.3125 C1.72125 40.250625 2.505 40.18875 3.3125 40.125 C6.11002548 39.59713216 6.11002548 39.59713216 7.078125 37.1640625 C8.76597092 31.56348285 9.16707806 24.6923254 7.14453125 19.1328125 C6.07878159 17.28951589 6.07878159 17.28951589 3.9375 15.3125 C2.9475 15.3125 1.9575 15.3125 0.9375 15.3125 C0.9375 14.6525 0.9375 13.9925 0.9375 13.3125 C-3.10872502 12.94269987 -3.10872502 12.94269987 -6.0625 15.3125 Z " fill="#4E4A61" transform="translate(235.0625,78.6875)"/>
<path d="M0 0 C0 0.66 0 1.32 0 2 C0.99 1.67 1.98 1.34 3 1 C4.97265625 2.07421875 4.97265625 2.07421875 7.0625 3.6875 C7.75472656 4.20699219 8.44695312 4.72648437 9.16015625 5.26171875 C11.07552195 7.07135301 11.88483637 8.64576566 13 11 C13.66 11.33 14.32 11.66 15 12 C15 14.31 15 16.62 15 19 C14.01 19.495 14.01 19.495 13 20 C12.21655744 21.99291777 11.51983635 24.02051823 10.875 26.0625 C10.52179688 27.16722656 10.16859375 28.27195312 9.8046875 29.41015625 C9.53914063 30.26480469 9.27359375 31.11945313 9 32 C3.80209778 33.25771547 -1.21152733 33.03004958 -6.52734375 32.9375 C-9.79728142 32.99635152 -12.79556501 33.3737898 -16 34 C-14.90679498 37.60868621 -14.90679498 37.60868621 -12.3125 40.1875 C-9.24341053 41.26582873 -6.14047812 42.15448666 -3 43 C-3 42.01 -3 41.02 -3 40 C-0.03 39.505 -0.03 39.505 3 39 C3.33 38.01 3.66 37.02 4 36 C5.32 36 6.64 36 8 36 C8.495 37.98 8.495 37.98 9 40 C7.68 40 6.36 40 5 40 C4.86722656 40.66386719 4.73445313 41.32773438 4.59765625 42.01171875 C3.73177083 46.34114583 2.86588542 50.67057292 2 55 C-8.82487091 55.60436624 -17.1323941 55.70384841 -25.8671875 48.44921875 C-32.65625373 41.12417361 -32.3060286 28.42803489 -32 19 C-31.67 18.34 -31.34 17.68 -31 17 C-30.64386903 15.33805547 -30.30791692 13.671549 -30 12 C-29.01 11.67 -28.02 11.34 -27 11 C-26.4225 10.0925 -25.845 9.185 -25.25 8.25 C-18.41779445 -1.61874135 -10.93359589 -0.59065044 0 0 Z M-10 12 C-10 12.66 -10 13.32 -10 14 C-11.98 14.99 -11.98 14.99 -14 16 C-14 16.99 -14 17.98 -14 19 C-14.66 19 -15.32 19 -16 19 C-16.33 19.99 -16.66 20.98 -17 22 C-10.73 22 -4.46 22 2 22 C2 21.01 2 20.02 2 19 C1.01 19 0.02 19 -1 19 C-1 18.01 -1 17.02 -1 16 C-1.66 16 -2.32 16 -3 16 C-3 15.01 -3 14.02 -3 13 C-5.31 12.67 -7.62 12.34 -10 12 Z " fill="#4E4A61" transform="translate(128,79)"/>
<path d="M0 0 C1.38294718 0.01329757 2.76582404 0.03715018 4.1484375 0.0703125 C4.85484375 0.07933594 5.56125 0.08835938 6.2890625 0.09765625 C8.03399848 0.12123647 9.77876045 0.15710789 11.5234375 0.1953125 C11.5234375 1.5153125 11.5234375 2.8353125 11.5234375 4.1953125 C10.5334375 4.1953125 9.5434375 4.1953125 8.5234375 4.1953125 C7.77102641 7.84988065 7.12294046 11.51265147 6.5234375 15.1953125 C5.8634375 15.1953125 5.2034375 15.1953125 4.5234375 15.1953125 C4.5440625 16.1028125 4.5646875 17.0103125 4.5859375 17.9453125 C4.534462 20.62203838 4.3019358 22.66519302 3.5234375 25.1953125 C2.8634375 25.1953125 2.2034375 25.1953125 1.5234375 25.1953125 C1.34167969 26.44248047 1.34167969 26.44248047 1.15625 27.71484375 C0.90488281 29.34486328 0.90488281 29.34486328 0.6484375 31.0078125 C0.48601562 32.08675781 0.32359375 33.16570312 0.15625 34.27734375 C-0.4765625 37.1953125 -0.4765625 37.1953125 -2.4765625 40.1953125 C-4.39547095 45.44032892 -5.88950979 50.84165469 -7.4765625 56.1953125 C-8.1365625 56.1953125 -8.7965625 56.1953125 -9.4765625 56.1953125 C-9.3528125 57.401875 -9.3528125 57.401875 -9.2265625 58.6328125 C-9.50815684 62.64553189 -10.68031912 65.1160261 -12.3984375 68.69140625 C-13.5685327 71.40890995 -14.31370962 74.07862534 -15.0390625 76.9453125 C-16.03073107 80.79341773 -17.02058175 83.99185935 -19.4765625 87.1953125 C-22.36072133 88.63739191 -24.89377778 88.28926137 -28.1015625 88.2578125 C-29.29007813 88.24878906 -30.47859375 88.23976563 -31.703125 88.23046875 C-33.07597656 88.21306641 -33.07597656 88.21306641 -34.4765625 88.1953125 C-34.1465625 85.8853125 -33.8165625 83.5753125 -33.4765625 81.1953125 C-32.4865625 81.1953125 -31.4965625 81.1953125 -30.4765625 81.1953125 C-30.3734375 80.2053125 -30.2703125 79.2153125 -30.1640625 78.1953125 C-29.66201751 74.5936854 -28.51970731 71.49199927 -27.17578125 68.12890625 C-26.2360206 65.5301268 -25.81842618 62.93022197 -25.4765625 60.1953125 C-24.8165625 60.1953125 -24.1565625 60.1953125 -23.4765625 60.1953125 C-23.3528125 59.1228125 -23.2290625 58.0503125 -23.1015625 56.9453125 C-22.56326064 53.71550131 -21.96538206 51.98684917 -20.4765625 49.1953125 C-19.88268067 46.62182455 -19.45398906 44.05342228 -19.0390625 41.4453125 C-18.8534375 40.7028125 -18.6678125 39.9603125 -18.4765625 39.1953125 C-17.4865625 38.7003125 -17.4865625 38.7003125 -16.4765625 38.1953125 C-15.81883822 35.16596759 -15.81883822 35.16596759 -15.4765625 32.1953125 C-14.8165625 32.1953125 -14.1565625 32.1953125 -13.4765625 32.1953125 C-13.43917969 31.61523438 -13.40179688 31.03515625 -13.36328125 30.4375 C-12.93137522 25.30544013 -11.92544135 21.78696034 -9.4765625 17.1953125 C-8.76897924 13.9586162 -8.76897924 13.9586162 -8.4765625 11.1953125 C-7.8165625 11.1953125 -7.1565625 11.1953125 -6.4765625 11.1953125 C-6.42757812 10.56882812 -6.37859375 9.94234375 -6.328125 9.296875 C-6.25335938 8.47960937 -6.17859375 7.66234375 -6.1015625 6.8203125 C-6.03195313 6.00820312 -5.96234375 5.19609375 -5.890625 4.359375 C-5.14718526 0.47385033 -3.82749215 0.21502765 0 0 Z " fill="#4C485E" transform="translate(168.4765625,58.8046875)"/>
<path d="M0 0 C0.69931641 -0.020625 1.39863281 -0.04125 2.11914062 -0.0625 C6.89036049 -0.09820604 10.18788235 0.62448412 14.1875 3.25 C15.3213017 6.87816543 15.39217449 8.63597653 14.1875 12.25 C13.1975 12.25 12.2075 12.25 11.1875 12.25 C10.8575 13.9 10.5275 15.55 10.1875 17.25 C7.1875 18.25 7.1875 18.25 4.5 16.9375 C3.736875 16.380625 2.97375 15.82375 2.1875 15.25 C2.1875 14.59 2.1875 13.93 2.1875 13.25 C-2.20564793 14.26160848 -2.20564793 14.26160848 -5.1875 17.375 C-5.39375 17.99375 -5.6 18.6125 -5.8125 19.25 C-6.4725 19.25 -7.1325 19.25 -7.8125 19.25 C-7.9023447 23.38285614 -7.77844733 27.44122443 -7.4375 31.5625 C-7.36789063 32.40425781 -7.29828125 33.24601562 -7.2265625 34.11328125 C-6.97931685 36.45629582 -6.97931685 36.45629582 -4.8125 38.25 C-1.9440587 40.35232344 -1.9440587 40.35232344 1.1875 41.25 C5.02146824 40.29150794 7.65576954 39.34433723 10.1875 36.25 C11.6221589 38.7367421 12.2363814 40.5616189 12.6875 43.4375 C12.935 44.8296875 12.935 44.8296875 13.1875 46.25 C14.1775 46.745 14.1775 46.745 15.1875 47.25 C15.1875 48.9 15.1875 50.55 15.1875 52.25 C8.53778893 56.0498349 1.70096216 56.26126688 -5.8125 55.25 C-12.78519201 52.7017471 -18.50556654 47.94928587 -21.8125 41.25 C-23.35057999 35.82527475 -23.08662089 31.46710087 -20.8125 26.25 C-20.1525 26.25 -19.4925 26.25 -18.8125 26.25 C-18.874375 25.363125 -18.93625 24.47625 -19 23.5625 C-18.8125 20.25 -18.8125 20.25 -17.375 17.9375 C-15.18974515 14.17886166 -15.08293621 10.53035249 -14.8125 6.25 C-13.8225 5.92 -12.8325 5.59 -11.8125 5.25 C-11.6475 4.59 -11.4825 3.93 -11.3125 3.25 C-11.1475 2.59 -10.9825 1.93 -10.8125 1.25 C-7.17206737 0.03652246 -3.79194814 0.0275028 0 0 Z " fill="#4F4B61" transform="translate(192.8125,78.75)"/>
<path d="M0 0 C1.98 0.66 3.96 1.32 6 2 C6 2.66 6 3.32 6 4 C7.30324219 3.51466797 7.30324219 3.51466797 8.6328125 3.01953125 C9.78523438 2.62121094 10.93765625 2.22289063 12.125 1.8125 C13.26195313 1.40644531 14.39890625 1.00039062 15.5703125 0.58203125 C19.79367603 -0.1346899 21.48638321 0.64890034 25 3 C26.29675513 6.07979343 26.13210892 7.55286212 25.1875 10.75 C24 13 24 13 22 14 C21.27840576 15.64363134 20.60648579 17.31050386 20 19 C18.02 18.34 16.04 17.68 14 17 C14 16.01 14 15.02 14 14 C11.00007271 15.29144978 11.00007271 15.29144978 8 17 C7.67 17.99 7.34 18.98 7 20 C6.34 20 5.68 20 5 20 C5.0721875 20.84820312 5.144375 21.69640625 5.21875 22.5703125 C6.9673913 44.67119565 6.9673913 44.67119565 5 55 C0.38 55.33 -4.24 55.66 -9 56 C-9.81584288 45.39404252 -10.21480273 34.86188427 -10.24023438 24.22509766 C-10.25015407 21.7109519 -10.28140945 19.1975564 -10.3125 16.68359375 C-10.31901331 15.07552559 -10.32427029 13.46745173 -10.328125 11.859375 C-10.3404718 11.11258484 -10.3528186 10.36579468 -10.36553955 9.59637451 C-10.35272755 6.64161858 -10.33062552 4.51533531 -8.70996094 1.98925781 C-5.81981193 0.31722986 -3.13377097 1.34959471 0 2 C0 1.34 0 0.68 0 0 Z " fill="#4F4B61" transform="translate(70,78)"/>
<path d="M0 0 C0.33 0.66 0.66 1.32 1 2 C1.66 2 2.32 2 3 2 C3 3.32 3 4.64 3 6 C3.66 6 4.32 6 5 6 C5 8.31 5 10.62 5 13 C4.34 13 3.68 13 3 13 C2.97421875 13.62648438 2.9484375 14.25296875 2.921875 14.8984375 C2.86515625 15.71570313 2.8084375 16.53296875 2.75 17.375 C2.68039063 18.59316406 2.68039063 18.59316406 2.609375 19.8359375 C2 22 2 22 0.03125 23.15625 C-0.6390625 23.4346875 -1.309375 23.713125 -2 24 C-3.26804566 26.0335948 -3.26804566 26.0335948 -4 28 C-2.8553125 29.36125 -2.8553125 29.36125 -1.6875 30.75 C-0.78276044 31.8259065 0.1124164 32.90989733 1 34 C1.556875 34.61875 2.11375 35.2375 2.6875 35.875 C4.38454206 38.6225919 4.14450784 40.09249128 3.6875 43.25 C3.56761719 44.14203125 3.44773437 45.0340625 3.32421875 45.953125 C3.21722656 46.62859375 3.11023438 47.3040625 3 48 C3.66 48.33 4.32 48.66 5 49 C4.67 50.98 4.34 52.96 4 55 C3.01 55 2.02 55 1 55 C-0.25790851 53.57657721 -1.50762636 52.14334183 -2.6796875 50.6484375 C-4.60509151 48.24453072 -6.79665895 46.14825753 -9 44 C-9.804375 43.175 -10.60875 42.35 -11.4375 41.5 C-14.00940708 38.91719933 -14.00940708 38.91719933 -17.0625 36.5 C-19.80332511 34.16738288 -21.93493088 31.9387522 -24 29 C-24 28.34 -24 27.68 -24 27 C-24.66 26.67 -25.32 26.34 -26 26 C-24.948125 25.46375 -23.89625 24.9275 -22.8125 24.375 C-18.98540543 22.20016513 -16.74454797 19.44827822 -14 16 C-11 13.5 -11 13.5 -8 11 C-4.83383247 7.64653805 -2.25027325 4.02680476 0 0 Z " fill="#4B485D" transform="translate(48,78)"/>
<path d="M0 0 C3.24690991 2.16460661 4.05064387 3.70919064 6 7 C7.31714334 8.49380687 8.68382185 9.94499792 10.08984375 11.35546875 C10.87423828 12.14244141 11.65863281 12.92941406 12.46679688 13.74023438 C13.28212891 14.54783203 14.09746094 15.35542969 14.9375 16.1875 C15.74896484 17.00669922 16.56042969 17.82589844 17.39648438 18.66992188 C18.18216797 19.45302734 18.96785156 20.23613281 19.77734375 21.04296875 C20.49140381 21.75477295 21.20546387 22.46657715 21.94116211 23.19995117 C23.89302357 24.90647015 25.6330665 25.97380734 28 27 C27.34 27 26.68 27 26 27 C25.9175 27.5775 25.835 28.155 25.75 28.75 C24.60110444 32.19668668 22.234932 33.96625242 19.49389648 36.26074219 C14.2676443 40.63677255 9.54455304 45.41983796 4.81054688 50.31640625 C4.21693359 50.92097656 3.62332031 51.52554688 3.01171875 52.1484375 C2.48022217 52.69677246 1.94872559 53.24510742 1.40112305 53.81005859 C0 55 0 55 -2 55 C-2.33 52.69 -2.66 50.38 -3 48 C-2.34 48 -1.68 48 -1 48 C-1.14308594 47.00419922 -1.14308594 47.00419922 -1.2890625 45.98828125 C-2.43362832 36.87168142 -2.43362832 36.87168142 0 33 C1.66666667 31.33333333 3.33333333 29.66666667 5 28 C5.34238829 25.0534859 5.34238829 25.0534859 3.72265625 23.640625 C3.17480469 23.18171875 2.62695312 22.7228125 2.0625 22.25 C-0.33726834 19.94078896 -0.97684001 19.08028798 -1.9375 15.75 C-2.12903226 4.25806452 -2.12903226 4.25806452 0 0 Z M7 27 C8 29 8 29 8 29 Z M0 34 C0.33 34.66 0.66 35.32 1 36 C1.33 35.34 1.66 34.68 2 34 C1.34 34 0.68 34 0 34 Z " fill="#4C495F" transform="translate(375,78)"/>
<path d="M0 0 C2 0 2 0 3.9375 1.875 C4.9584375 2.926875 4.9584375 2.926875 6 4 C6.99 4.66 7.98 5.32 9 6 C11.15088342 10.5053484 12.2772908 15.00876555 12 20 C12.20625 20.845625 12.4125 21.69125 12.625 22.5625 C13.06726757 25.43723921 12.52311004 26.58094287 11 29 C10.67 28.34 10.34 27.68 10 27 C9.67 27.66 9.34 28.32 9 29 C7.01432292 28.96744792 5.02864583 28.93489583 3.04296875 28.90234375 C0.79694539 28.91736783 0.79694539 28.91736783 -2 30 C-2.33 27.69 -2.66 25.38 -3 23 C-2.01 22.67 -1.02 22.34 0 22 C0.4361141 17.78099043 0.4361141 17.78099043 -1.5 14.25 C-2.2425 13.63125 -2.2425 13.63125 -3 13 C-3 12.34 -3 11.68 -3 11 C-5.97 11 -8.94 11 -12 11 C-10.68 10.34 -9.36 9.68 -8 9 C-7.67 8.34 -7.34 7.68 -7 7 C-5.74056317 4.48112635 -4.56059348 4.0402411 -2 3 C-1.34 2.67 -0.68 2.34 0 2 C0 1.34 0 0.68 0 0 Z " fill="#4E4B62" transform="translate(352,80)"/>
<path d="M0 0 C0.99 0 1.98 0 3 0 C4.08661033 3.91179717 3.87838535 5.47802746 2 9 C2.33 9.99 2.66 10.98 3 12 C3.33 11.34 3.66 10.68 4 10 C4.66 10 5.32 10 6 10 C6.33 11.65 6.66 13.3 7 15 C6.34 15 5.68 15 5 15 C4.91363281 15.60328125 4.82726562 16.2065625 4.73828125 16.828125 C4.0266353 20.87601938 3.54916012 23.38982209 0.75 26.5 C-2.22999126 28.12544978 -4.63533022 28.68700746 -8 29 C-8.625 26.1875 -8.625 26.1875 -9 23 C-8.01 21.515 -8.01 21.515 -7 20 C-6.83286431 17.37468476 -6.83286431 17.37468476 -7 15 C-6.01 14.67 -5.02 14.34 -4 14 C-4.12375 13.0409375 -4.12375 13.0409375 -4.25 12.0625 C-3.8854753 7.59707243 -1.94762276 3.99088772 0 0 Z " fill="#504B63" transform="translate(156,90)"/>
<path d="M0 0 C0.69931641 -0.020625 1.39863281 -0.04125 2.11914062 -0.0625 C6.89036049 -0.09820604 10.18788235 0.62448412 14.1875 3.25 C15.3213017 6.87816543 15.39217449 8.63597653 14.1875 12.25 C13.1975 12.25 12.2075 12.25 11.1875 12.25 C10.8575 13.9 10.5275 15.55 10.1875 17.25 C9.1975 17.58 8.2075 17.91 7.1875 18.25 C4.5 16.8125 4.5 16.8125 2.1875 15.25 C2.5175 14.26 2.8475 13.27 3.1875 12.25 C6.1575 12.745 6.1575 12.745 9.1875 13.25 C9.8475 11.27 10.5075 9.29 11.1875 7.25 C11.8475 7.25 12.5075 7.25 13.1875 7.25 C13.1875 6.26 13.1875 5.27 13.1875 4.25 C8.22676578 2.92713754 3.27638488 3.16106803 -1.8125 3.25 C-1.8125 4.24 -1.8125 5.23 -1.8125 6.25 C-3.4625 6.91 -5.1125 7.57 -6.8125 8.25 C-6.60625 9.03375 -6.4 9.8175 -6.1875 10.625 C-6.06375 11.49125 -5.94 12.3575 -5.8125 13.25 C-6.4725 13.91 -7.1325 14.57 -7.8125 15.25 C-9.9375 14.875 -9.9375 14.875 -11.8125 14.25 C-11.8125 13.59 -11.8125 12.93 -11.8125 12.25 C-13.1325 14.89 -14.4525 17.53 -15.8125 20.25 C-16.4725 19.92 -17.1325 19.59 -17.8125 19.25 C-17.49539062 18.68796875 -17.17828125 18.1259375 -16.8515625 17.546875 C-15.74375475 15.09803683 -15.42274601 13.16612145 -15.1875 10.5 C-15.11273438 9.70078125 -15.03796875 8.9015625 -14.9609375 8.078125 C-14.91195312 7.47484375 -14.86296875 6.8715625 -14.8125 6.25 C-13.8225 5.92 -12.8325 5.59 -11.8125 5.25 C-11.6475 4.59 -11.4825 3.93 -11.3125 3.25 C-11.1475 2.59 -10.9825 1.93 -10.8125 1.25 C-7.17206737 0.03652246 -3.79194814 0.0275028 0 0 Z " fill="#4B475E" transform="translate(192.8125,78.75)"/>
<path d="M0 0 C0.33 0 0.66 0 1 0 C2.07760104 10.5182698 2.15423141 20.97774736 2.13037109 31.54052734 C2.12497091 34.39035259 2.13036736 37.24002302 2.13671875 40.08984375 C2.13605854 41.92187534 2.13477858 43.75390684 2.1328125 45.5859375 C2.13483673 46.42772552 2.13686096 47.26951355 2.13894653 48.1368103 C2.12029005 52.86214702 1.78711107 57.33908313 1 62 C-3.62 62.33 -8.24 62.66 -13 63 C-13.33 61.68 -13.66 60.36 -14 59 C-14.55171875 59.48082031 -15.1034375 59.96164063 -15.671875 60.45703125 C-18.36143493 62.23954161 -20.05821418 62.47751409 -23.25 62.6875 C-24.14203125 62.75324219 -25.0340625 62.81898438 -25.953125 62.88671875 C-26.96632813 62.94279297 -26.96632813 62.94279297 -28 63 C-27.67 62.34 -27.34 61.68 -27 61 C-25.00437005 60.47655608 -23.00611036 59.95965533 -20.9921875 59.51171875 C-18.89948304 59.0603452 -18.89948304 59.0603452 -16.8125 57.8125 C-14.28750791 56.68060699 -12.60311423 57.27691271 -10 58 C-10 58.66 -10 59.32 -10 60 C-7.36 60 -4.72 60 -2 60 C-1.22466512 55.88079283 -0.87170892 51.98629172 -0.8671875 47.796875 C-0.86589844 46.6521875 -0.86460937 45.5075 -0.86328125 44.328125 C-0.86908203 42.55695313 -0.86908203 42.55695313 -0.875 40.75 C-0.87113281 39.55375 -0.86726563 38.3575 -0.86328125 37.125 C-0.86457031 35.98546875 -0.86585938 34.8459375 -0.8671875 33.671875 C-0.86831543 32.6312793 -0.86944336 31.59068359 -0.87060547 30.51855469 C-0.8311521 28.00375202 -0.8311521 28.00375202 -2 26 C-1.7834375 24.73929688 -1.7834375 24.73929688 -1.5625 23.453125 C-0.86591186 19.1768478 -0.93030143 15.07131151 -1 10.75 C-1.13420245 2.26840491 -1.13420245 2.26840491 0 0 Z " fill="#403C4F" transform="translate(310,71)"/>
<path d="M0 0 C1.72880982 -0.05449838 3.45812712 -0.09301688 5.1875 -0.125 C6.15042969 -0.14820312 7.11335937 -0.17140625 8.10546875 -0.1953125 C11.12812778 0.0086456 13.26769985 0.73125368 16 2 C15.43454163 5.95820859 14.19097652 8.6659053 12 12 C9.69 11.67 7.38 11.34 5 11 C5 10.34 5 9.68 5 9 C2.03 10.32 -0.94 11.64 -4 13 C-4.33 10.69 -4.66 8.38 -5 6 C-1.25 4 -1.25 4 1 4 C0.67 2.68 0.34 1.36 0 0 Z " fill="#504C63" transform="translate(190,81)"/>
<path d="M0 0 C2.64465038 3.1254959 3.84414715 6.08788267 5 10 C4.01 10.33 3.02 10.66 2 11 C2 11.66 2 12.32 2 13 C-4.22895086 14.13253652 -8.91748904 13.70366626 -15 12 C-14.67 10.35 -14.34 8.7 -14 7 C-13.34 7 -12.68 7 -12 7 C-12.33 6.01 -12.66 5.02 -13 4 C-12.39671875 3.87882812 -11.7934375 3.75765625 -11.171875 3.6328125 C-10.37265625 3.46523437 -9.5734375 3.29765625 -8.75 3.125 C-7.96109375 2.96257812 -7.1721875 2.80015625 -6.359375 2.6328125 C-4.03168856 2.00849925 -2.10968048 1.15161458 0 0 Z " fill="#4F4C63" transform="translate(201,119)"/>
<path d="M0 0 C2 1 2 1 2.875 3.4375 C3.75679852 6.04647005 3.75679852 6.04647005 5.6875 7.1875 C8.75658947 8.26582873 11.85952188 9.15448666 15 10 C15 9.01 15 8.02 15 7 C16.98 6.67 18.96 6.34 21 6 C21.33 5.01 21.66 4.02 22 3 C23.32 3 24.64 3 26 3 C26.33 4.32 26.66 5.64 27 7 C25.68 7 24.36 7 23 7 C22.86722656 7.66386719 22.73445313 8.32773438 22.59765625 9.01171875 C21.73177083 13.34114583 20.86588542 17.67057292 20 22 C16.125 20.25 16.125 20.25 15 18 C14.34 18.33 13.68 18.66 13 19 C12.34 17.68 11.68 16.36 11 15 C11.99 15 12.98 15 14 15 C13.67 14.01 13.34 13.02 13 12 C11.39125 11.566875 11.39125 11.566875 9.75 11.125 C5.45906441 9.83771932 3.75669392 8.48640702 1 5 C0.1875 2.1875 0.1875 2.1875 0 0 Z " fill="#474458" transform="translate(110,112)"/>
<path d="M0 0 C0.268125 0.639375 0.53625 1.27875 0.8125 1.9375 C1.88667752 4.33131686 1.88667752 4.33131686 5 5 C6.10228696 9.40914783 6.07654536 13.48382401 6 18 C6.33 18 6.66 18 7 18 C7 19.98 7 21.96 7 24 C5.79053711 23.99214478 5.79053711 23.99214478 4.55664062 23.98413086 C0.87110181 23.96322638 -2.81442448 23.95029714 -6.5 23.9375 C-7.7684375 23.92912109 -9.036875 23.92074219 -10.34375 23.91210938 C-16.66083499 23.89565863 -22.75810372 23.99908986 -29 25 C-29 24.01 -29 23.02 -29 22 C-24.12008519 20.59392285 -20.97328834 19.69123991 -16 21 C-10.76680072 21.2275304 -5.69676058 20.70967384 -0.625 19.375 C-0.08875 19.25125 0.4475 19.1275 1 19 C1.33 19.33 1.66 19.66 2 20 C2.99 16.535 2.99 16.535 4 13 C3.34 12.67 2.68 12.34 2 12 C1.59802999 9.67750658 1.27313343 7.34114367 1 5 C0.68033861 3.33065717 0.35268934 1.6626783 0 0 Z " fill="#434154" transform="translate(361,88)"/>
<path d="M0 0 C0 0.66 0 1.32 0 2 C1.32 1.67 2.64 1.34 4 1 C6.4294516 4.6441774 6.16179575 6.71241272 6 11 C5.01 10.67 4.02 10.34 3 10 C2.29788106 8.34795544 1.63028587 6.68076231 1 5 C0.34 4.67 -0.32 4.34 -1 4 C-1 5.32 -1 6.64 -1 8 C-3.375 9.0625 -3.375 9.0625 -6 10 C-6.66 9.67 -7.32 9.34 -8 9 C-7.67 9.99 -7.34 10.98 -7 12 C-7.66 12.66 -8.32 13.32 -9 14 C-9 13.01 -9 12.02 -9 11 C-9.66 11 -10.32 11 -11 11 C-11.48076923 4.75 -11.48076923 4.75 -9.4375 1.5625 C-6.18129203 -0.5248128 -3.79004984 -0.2915423 0 0 Z " fill="#514D65" transform="translate(306,59)"/>
<path d="M0 0 C3.34373475 0.55728913 6.03312999 1.35173889 9 3 C9 3.66 9 4.32 9 5 C10.32 5 11.64 5 13 5 C12.125 8.875 12.125 8.875 11 10 C4.2616421 10.60621905 -1.01972541 10.18947978 -7 7 C-7 6.67 -7 6.34 -7 6 C-5.02 6 -3.04 6 -1 6 C0.10836423 4.11683841 0.10836423 4.11683841 1 2 C0.67 1.34 0.34 0.68 0 0 Z " fill="#4E4A60" transform="translate(114,124)"/>
<path d="M0 0 C0.66 0.66 1.32 1.32 2 2 C0.38405168 4.04119788 -1.2856382 6.04072937 -3 8 C-3.66 8 -4.32 8 -5 8 C-5 8.99 -5 9.98 -5 11 C0.94 11 6.88 11 13 11 C13 10.01 13 9.02 13 8 C12.34 8 11.68 8 11 8 C8 4.53846154 8 4.53846154 8 2 C7.34 1.67 6.68 1.34 6 1 C6.66 0.67 7.32 0.34 8 0 C8.66 0.33 9.32 0.66 10 1 C10 1.66 10 2.32 10 3 C10.99 3.33 11.98 3.66 13 4 C14.36623674 6.73247348 14.128426 8.98198902 14 12 C12.45049732 13.54950268 10.90009406 13.21655193 8.74609375 13.31640625 C7.46508789 13.37924805 7.46508789 13.37924805 6.15820312 13.44335938 C5.26037109 13.48267578 4.36253906 13.52199219 3.4375 13.5625 C2.53580078 13.60568359 1.63410156 13.64886719 0.70507812 13.69335938 C-1.52978485 13.79978142 -3.76476308 13.90179988 -6 14 C-7.21875 8.40625 -7.21875 8.40625 -5.25 4.75 C-3 2 -3 2 0 0 Z " fill="#423F52" transform="translate(339,90)"/>
<path d="M0 0 C0.66 0 1.32 0 2 0 C2 0.66 2 1.32 2 2 C2.66 2.33 3.32 2.66 4 3 C3.24203125 3.53173828 3.24203125 3.53173828 2.46875 4.07421875 C-1.02765523 6.93932859 -2.82875598 8.76243816 -3.46484375 13.359375 C-3.44009489 16.5979396 -3.30539451 19.77639126 -3 23 C-1.35 21.35 0.3 19.7 2 18 C2.66 18.33 3.32 18.66 4 19 C2.54782324 20.50596108 1.08807139 22.00462104 -0.375 23.5 C-1.18710937 24.3353125 -1.99921875 25.170625 -2.8359375 26.03125 C-5 28 -5 28 -7 28 C-7.33 25.69 -7.66 23.38 -8 21 C-7.34 21 -6.68 21 -6 21 C-6.09539062 20.33613281 -6.19078125 19.67226562 -6.2890625 18.98828125 C-7.43362832 9.87168142 -7.43362832 9.87168142 -5 6 C-3.37253306 4.29503463 -1.71108689 2.62102968 0 1 C0 0.67 0 0.34 0 0 Z M-5 7 C-4.67 7.66 -4.34 8.32 -4 9 C-3.67 8.34 -3.34 7.68 -3 7 C-3.66 7 -4.32 7 -5 7 Z " fill="#3E3B4B" transform="translate(380,105)"/>
<path d="M0 0 C2.54232342 -0.08152344 5.08199202 -0.14073716 7.625 -0.1875 C8.33785156 -0.21263672 9.05070313 -0.23777344 9.78515625 -0.26367188 C14.57919674 -0.32964491 17.87866618 0.27572849 22 3 C23.1338017 6.62816543 23.20467449 8.38597653 22 12 C21.01 12 20.02 12 19 12 C18.67 13.65 18.34 15.3 18 17 C17.01 17.33 16.02 17.66 15 18 C12.3125 16.5625 12.3125 16.5625 10 15 C10.33 14.01 10.66 13.02 11 12 C13.97 12.495 13.97 12.495 17 13 C17.66 11.02 18.32 9.04 19 7 C19.66 7 20.32 7 21 7 C21 6.01 21 5.02 21 4 C16.0974856 2.85037937 11.18544687 2.67582705 6.17578125 2.48242188 C4.44542358 2.39162093 2.72074096 2.20355106 1 2 C0.67 1.34 0.34 0.68 0 0 Z " fill="#343145" transform="translate(185,79)"/>
<path d="M0 0 C0 0.66 0 1.32 0 2 C0.99 2.33 1.98 2.66 3 3 C3 3.99 3 4.98 3 6 C1 5 1 5 -0.25 3.5 C-2.66670386 1.42853955 -4.89468854 1.34503461 -8 1 C-8 1.99 -8 2.98 -8 4 C-8.65226562 4.5671875 -9.30453125 5.134375 -9.9765625 5.71875 C-12.84539602 8.95311057 -12.46711856 11.24579734 -12.375 15.5 C-12.36210937 16.8096875 -12.34921875 18.119375 -12.3359375 19.46875 C-12.03299002 22.65322117 -11.81207224 24.42174956 -10 27 C-6.75073878 29.16617415 -6.4014758 29.21335669 -2.8125 28.625 C-1.554375 28.41875 -0.29625 28.2125 1 28 C0.67 28.99 0.34 29.98 0 31 C-7.20800421 31.48867825 -7.20800421 31.48867825 -10.9375 29.1875 C-14.79163947 25.09977632 -14.28171561 20.49198958 -14.375 15.1875 C-14.41238281 14.39279297 -14.44976562 13.59808594 -14.48828125 12.77929688 C-14.55129017 8.54719748 -14.32405713 5.8374842 -11.6015625 2.484375 C-7.52931252 -1.40444029 -5.33599126 -1.33399782 0 0 Z " fill="#3F3D4C" transform="translate(293,91)"/>
<path d="M0 0 C0.66 0 1.32 0 2 0 C2.66 0.66 3.32 1.32 4 2 C6.8684413 4.10232344 6.8684413 4.10232344 10 5 C13.83396824 4.04150794 16.46826954 3.09433723 19 0 C20.4346589 2.4867421 21.0488814 4.3116189 21.5 7.1875 C21.7475 8.5796875 21.7475 8.5796875 22 10 C22.66 10.33 23.32 10.66 24 11 C24 12.65 24 14.3 24 16 C21.69 16.99 19.38 17.98 17 19 C16.34 18.34 15.68 17.68 15 17 C15.66 16.67 16.32 16.34 17 16 C17.66 16.33 18.32 16.66 19 17 C19 16.34 19 15.68 19 15 C19.99 14.34 20.98 13.68 22 13 C20.38731308 10.28775382 18.75098126 7.62647188 17 5 C16.41992188 5.26296875 15.83984375 5.5259375 15.2421875 5.796875 C12.80860573 6.77673301 10.58698284 7.54843856 8 8 C4.43520657 6.37963935 2.66206362 5.08337683 0.625 1.75 C0.41875 1.1725 0.2125 0.595 0 0 Z " fill="#373446" transform="translate(184,115)"/>
<path d="M0 0 C0.14285714 8.57142857 0.14285714 8.57142857 -1 12 C-1.598125 12.144375 -2.19625 12.28875 -2.8125 12.4375 C-4.56150404 12.8872439 -6.28677023 13.42892341 -8 14 C-8.66 12.68 -9.32 11.36 -10 10 C-9.21654285 8.82780457 -8.42297164 7.66236332 -7.625 6.5 C-7.18414062 5.8503125 -6.74328125 5.200625 -6.2890625 4.53125 C-5.86367188 4.0259375 -5.43828125 3.520625 -5 3 C-4.34 3 -3.68 3 -3 3 C-3 2.34 -3 1.68 -3 1 C-1 0 -1 0 0 0 Z " fill="#4F4B63" transform="translate(50,82)"/>
<path d="M0 0 C1.29675513 3.07979343 1.13210892 4.55286212 0.1875 7.75 C-1 10 -1 10 -3 11 C-3.72159424 12.64363134 -4.39351421 14.31050386 -5 16 C-6.98 15.34 -8.96 14.68 -11 14 C-10.67 13.01 -10.34 12.02 -10 11 C-8.68 11.33 -7.36 11.66 -6 12 C-5.79503906 11.38511719 -5.59007813 10.77023438 -5.37890625 10.13671875 C-4.25260417 6.7578125 -3.12630208 3.37890625 -2 0 C-6.62 0.33 -11.24 0.66 -16 1 C-11.23593777 -3.76406223 -5.2104686 -3.9396226 0 0 Z " fill="#343142" transform="translate(95,81)"/>
<path d="M0 0 C1 2 1 2 0.44140625 4.1640625 C0.15136719 4.97617188 -0.13867188 5.78828125 -0.4375 6.625 C-0.86869141 7.85089844 -0.86869141 7.85089844 -1.30859375 9.1015625 C-1.53675781 9.72804688 -1.76492187 10.35453125 -2 11 C-5.42573937 11.77528479 -8.57239245 12.11918778 -12.08203125 12.09765625 C-13.01337891 12.09443359 -13.94472656 12.09121094 -14.90429688 12.08789062 C-15.86400391 12.07951172 -16.82371094 12.07113281 -17.8125 12.0625 C-19.28106445 12.05573242 -19.28106445 12.05573242 -20.77929688 12.04882812 C-23.18626111 12.03708684 -25.59309857 12.02066419 -28 12 C-28 11.34 -28 10.68 -28 10 C-21.375 7.875 -21.375 7.875 -18 9 C-15.60509014 9.06970052 -13.20832309 9.08448003 -10.8125 9.0625 C-9.54019531 9.05347656 -8.26789063 9.04445313 -6.95703125 9.03515625 C-5.98121094 9.02355469 -5.00539062 9.01195313 -4 9 C-2.68 6.03 -1.36 3.06 0 0 Z " fill="#413F52" transform="translate(139,100)"/>
<path d="M0 0 C0.268125 0.639375 0.53625 1.27875 0.8125 1.9375 C1.88667752 4.33131686 1.88667752 4.33131686 5 5 C6.10228696 9.40914783 6.07654536 13.48382401 6 18 C6.33 18 6.66 18 7 18 C7 19.98 7 21.96 7 24 C4.69 24 2.38 24 0 24 C-0.33 22.35 -0.66 20.7 -1 19 C-0.01 19.33 0.98 19.66 2 20 C2.99 16.535 2.99 16.535 4 13 C3.34 12.67 2.68 12.34 2 12 C1.59802999 9.67750658 1.27313343 7.34114367 1 5 C0.68033861 3.33065717 0.35268934 1.6626783 0 0 Z " fill="#413F52" transform="translate(361,88)"/>
<path d="M0 0 C2 3 2 3 1.75 6.625 C1.5025 7.73875 1.255 8.8525 1 10 C0.01 10.495 0.01 10.495 -1 11 C-1.66 10.67 -2.32 10.34 -3 10 C-3 9.34 -3 8.68 -3 8 C-8.61 7.67 -14.22 7.34 -20 7 C-19.67 6.34 -19.34 5.68 -19 5 C-17.57107422 5.03480469 -17.57107422 5.03480469 -16.11328125 5.0703125 C-14.85902344 5.08835937 -13.60476563 5.10640625 -12.3125 5.125 C-11.07113281 5.14820312 -9.82976562 5.17140625 -8.55078125 5.1953125 C-5.18762143 5.01032021 -3.0014413 4.45767895 0 3 C0 2.01 0 1.02 0 0 Z " fill="#38324C" transform="translate(297,74)"/>
<path d="M0 0 C2.37140025 3.55710037 1.87293174 4.93390957 1.22265625 9 C0.94581723 11.48669439 1.43067032 13.58034886 2 16 C1.67 16.66 1.34 17.32 1 18 C4.3 18.33 7.6 18.66 11 19 C11.66 17.35 12.32 15.7 13 14 C13.33 14 13.66 14 14 14 C14 15.98 14 17.96 14 20 C9.38 20.33 4.76 20.66 0 21 C-0.1963696 18.62543835 -0.38231294 16.25079981 -0.5625 13.875 C-0.61857422 13.20984375 -0.67464844 12.5446875 -0.73242188 11.859375 C-1.03625857 7.7271959 -0.85227531 4.05304259 0 0 Z " fill="#424052" transform="translate(61,113)"/>
<path d="M0 0 C3 1 3 1 4.6875 4.0625 C5.120625 5.031875 5.55375 6.00125 6 7 C3.36 8.98 0.72 10.96 -2 13 C-2 9.04 -2 5.08 -2 1 C-1.34 0.67 -0.68 0.34 0 0 Z " fill="#514D65" transform="translate(378,116)"/>
<path d="M0 0 C1.5 1.2578125 1.5 1.2578125 3 3 C3 5.08479807 2.99030438 7.17023151 2.921875 9.25390625 C3.09464488 15.32676746 3.86791088 22.71392667 8.109375 27.26171875 C8.73328125 27.83535156 9.3571875 28.40898438 10 29 C10 29.66 10 30.32 10 31 C8 31 8 31 6.5625 29.8125 C-0.48176596 21.64115149 -0.13400572 10.30503977 0 0 Z " fill="#343243" transform="translate(96,98)"/>
<path d="M0 0 C1.03719328 3.21456356 0.94068337 5.40925583 0.1875 8.6875 C0.01605469 9.47511719 -0.15539062 10.26273438 -0.33203125 11.07421875 C-1 13 -1 13 -3 14 C-4.91865756 18.44320697 -6.23004535 23.22628119 -7 28 C-8.32 28.33 -9.64 28.66 -11 29 C-10.01 27.515 -10.01 27.515 -9 26 C-9 24.68 -9 23.36 -9 22 C-8.34 21.67 -7.68 21.34 -7 21 C-6.34227572 17.97065509 -6.34227572 17.97065509 -6 15 C-5.34 15 -4.68 15 -4 15 C-3.96261719 14.41992188 -3.92523438 13.83984375 -3.88671875 13.2421875 C-3.46096333 8.18321136 -2.62861009 4.45720842 0 0 Z " fill="#3A384A" transform="translate(159,76)"/>
<path d="M0 0 C0.33 0 0.66 0 1 0 C1 6.27 1 12.54 1 19 C0.67 19 0.34 19 0 19 C-0.2475 20.093125 -0.495 21.18625 -0.75 22.3125 C-2.02002851 26.05908409 -2.65756352 27.10595266 -6 29 C-6 27.68 -6 26.36 -6 25 C-5.34 24.67 -4.68 24.34 -4 24 C-1.86520993 17.47005392 -1.63517626 10.39481751 -1.24609375 3.58984375 C-1 1 -1 1 0 0 Z " fill="#3D3B4D" transform="translate(257,98)"/>
<path d="M0 0 C2.9375 0.8125 2.9375 0.8125 6 2 C6.33 2.99 6.66 3.98 7 5 C7.99 5.33 8.98 5.66 10 6 C9.34 6 8.68 6 8 6 C8.26876953 7.051875 8.26876953 7.051875 8.54296875 8.125 C10.06213002 14.90137998 10.06827143 18.74544669 7 25 C5.55142942 20.44257409 6.07182583 15.91218551 6.2578125 11.19140625 C5.96801523 7.60406727 5.20163689 5.82116727 3 3 C2.01 2.67 1.02 2.34 0 2 C0 1.34 0 0.68 0 0 Z " fill="#444150" transform="translate(236,92)"/>
<path d="M0 0 C0 1.32 0 2.64 0 4 C-0.99 4 -1.98 4 -3 4 C-3.75241109 7.65456815 -4.40049704 11.31733897 -5 15 C-5.99 14.67 -6.98 14.34 -8 14 C-7.01 10.7 -6.02 7.4 -5 4 C-7.97 3.505 -7.97 3.505 -11 3 C-10 1 -10 1 -8.3125 0.375 C-5.51555886 -0.07855802 -2.82858003 -0.06428591 0 0 Z " fill="#39364E" transform="translate(180,59)"/>
<path d="M0 0 C3.29763989 2.1984266 3.99398552 3.65664253 6 7 C7.93505224 9.3915261 9.95432741 11.70275603 12 14 C8.07699728 12.17495091 5.26212728 9.81729174 2 7 C0.50256881 8.49743119 0.66797307 9.98824239 0.4375 12.0625 C0.2209375 14.0115625 0.2209375 14.0115625 0 16 C-1.98376188 12.7317333 -2.1540383 10.64103206 -1.6875 6.875 C-1.58824219 6.00617188 -1.48898437 5.13734375 -1.38671875 4.2421875 C-1 2 -1 2 0 0 Z " fill="#393646" transform="translate(375,78)"/>
<path d="M0 0 C0 3.60297389 -1.1785171 4.96419516 -3 8 C-3 8.99 -3 9.98 -3 11 C-3.66 11 -4.32 11 -5 11 C-5.33 14.63 -5.66 18.26 -6 22 C-6.66 21.67 -7.32 21.34 -8 21 C-8.32827149 12.62907701 -7.02175211 7.90490916 -2 1 C-1.34 0.67 -0.68 0.34 0 0 Z " fill="#3C3949" transform="translate(219,84)"/>
<path d="M0 0 C0.33 0.66 0.66 1.32 1 2 C1.66 2 2.32 2 3 2 C3 3.32 3 4.64 3 6 C3.66 6 4.32 6 5 6 C5 8.31 5 10.62 5 13 C4.34 13 3.68 13 3 13 C3 14.98 3 16.96 3 19 C2.67 19 2.34 19 2 19 C1.67 14.38 1.34 9.76 1 5 C0.34 5 -0.32 5 -1 5 C-1 5.66 -1 6.32 -1 7 C-1.66 7 -2.32 7 -3 7 C-1.125 1.125 -1.125 1.125 0 0 Z " fill="#373243" transform="translate(48,78)"/>
<path d="M0 0 C0.99 0.66 1.98 1.32 3 2 C2 3 2 3 -0.06640625 3.09765625 C-0.89011719 3.08605469 -1.71382812 3.07445313 -2.5625 3.0625 C-3.38878906 3.05347656 -4.21507813 3.04445313 -5.06640625 3.03515625 C-5.70449219 3.02355469 -6.34257813 3.01195313 -7 3 C-6.89300781 3.59167969 -6.78601562 4.18335937 -6.67578125 4.79296875 C-5.68439108 11.32761578 -5.68439108 11.32761578 -7.4375 15.0625 C-8.2109375 16.0215625 -8.2109375 16.0215625 -9 17 C-9.81788791 14.10441295 -10.18892672 11.44535913 -10.25 8.4375 C-10.27578125 7.67308594 -10.3015625 6.90867187 -10.328125 6.12109375 C-10 4 -10 4 -8.71484375 2.203125 C-7 1 -7 1 -3.3125 1.3125 C-2.219375 1.539375 -1.12625 1.76625 0 2 C0 1.34 0 0.68 0 0 Z " fill="#474253" transform="translate(70,78)"/>
<path d="M0 0 C0.74056641 0.00902344 1.48113281 0.01804687 2.24414062 0.02734375 C4.05873467 0.05075787 5.87316071 0.08662385 7.6875 0.125 C7.3575 0.785 7.0275 1.445 6.6875 2.125 C3.703125 2.50390625 3.703125 2.50390625 -0.0625 2.6875 C-6.25504994 2.94347202 -6.25504994 2.94347202 -12.3125 4.125 C-12.6425 4.785 -12.9725 5.445 -13.3125 6.125 C-13.9725 5.465 -14.6325 4.805 -15.3125 4.125 C-14.6525 4.125 -13.9925 4.125 -13.3125 4.125 C-13.3125 3.465 -13.3125 2.805 -13.3125 2.125 C-8.90220217 -0.08449832 -4.82309676 -0.1120648 0 0 Z " fill="#39374C" transform="translate(235.3125,78.875)"/>
<path d="M0 0 C1.98 0.495 1.98 0.495 4 1 C3.67 2.32 3.34 3.64 3 5 C8.94 4.505 8.94 4.505 15 4 C12 7 12 7 8.86328125 7.29296875 C7.69152344 7.25816406 6.51976562 7.22335938 5.3125 7.1875 C3.54326172 7.14689453 3.54326172 7.14689453 1.73828125 7.10546875 C0.38283203 7.05326172 0.38283203 7.05326172 -1 7 C-0.67 4.69 -0.34 2.38 0 0 Z " fill="#3A3845" transform="translate(135,140)"/>
<path d="M0 0 C1.46573934 0.90477737 2.92235756 1.82434141 4.375 2.75 C5.18710938 3.26046875 5.99921875 3.7709375 6.8359375 4.296875 C9.11247822 6.08852076 9.83429849 7.40713122 11 10 C11.66 10.33 12.32 10.66 13 11 C13 13.31 13 15.62 13 18 C12.01 18.33 11.02 18.66 10 19 C10.33 18.01 10.66 17.02 11 16 C8.68701705 9.85506021 5.10970597 5.92140226 0 2 C0 1.34 0 0.68 0 0 Z " fill="#3A3850" transform="translate(130,80)"/>
<path d="M0 0 C5.66197809 1.31673909 7.74584061 3.40589263 11 8 C11 8.66 11 9.32 11 10 C11.66 10 12.32 10 13 10 C13.33 12.31 13.66 14.62 14 17 C13.814375 16.401875 13.62875 15.80375 13.4375 15.1875 C11.27726247 11.90018201 8.64892345 11.35145313 5 10 C5.66 9.34 6.32 8.68 7 8 C5.66715336 4.00146009 3.47020318 3.21502331 0 1 C0 0.67 0 0.34 0 0 Z " fill="#3E3B53" transform="translate(243,81)"/>
<path d="M0 0 C-2 2 -2 2 -5 3 C-5.73323796 5.01508358 -5.73323796 5.01508358 -6 7 C-5.34 7.33 -4.68 7.66 -4 8 C-4.66 8 -5.32 8 -6 8 C-5.690625 8.928125 -5.690625 8.928125 -5.375 9.875 C-5.25125 10.57625 -5.1275 11.2775 -5 12 C-5.66 12.66 -6.32 13.32 -7 14 C-7 13.01 -7 12.02 -7 11 C-7.66 11 -8.32 11 -9 11 C-9.48461538 4.7 -9.48461538 4.7 -7.3125 1.5625 C-4.61589191 -0.25953249 -3.18873549 -0.35430394 0 0 Z " fill="#39364A" transform="translate(304,59)"/>
<path d="M0 0 C0.99 0.99 1.98 1.98 3 3 C2.01 3 1.02 3 0 3 C-0.33 4.65 -0.66 6.3 -1 8 C-1.99 8.33 -2.98 8.66 -4 9 C-6.6875 7.5625 -6.6875 7.5625 -9 6 C-8.67 5.01 -8.34 4.02 -8 3 C-5.03 3.495 -5.03 3.495 -2 4 C-1.34 2.68 -0.68 1.36 0 0 Z " fill="#454153" transform="translate(204,88)"/>
<path d="M0 0 C0.66 0.33 1.32 0.66 2 1 C1.67 4.3 1.34 7.6 1 11 C1.66 11.33 2.32 11.66 3 12 C2.67 13.98 2.34 15.96 2 18 C1.01 18 0.02 18 -1 18 C-2.6875 15.5 -2.6875 15.5 -4 13 C-2.68 13.33 -1.36 13.66 0 14 C-0.08378906 13.15695313 -0.16757812 12.31390625 -0.25390625 11.4453125 C-0.35574219 10.34960938 -0.45757812 9.25390625 -0.5625 8.125 C-0.66691406 7.03445312 -0.77132812 5.94390625 -0.87890625 4.8203125 C-1 2 -1 2 0 0 Z " fill="#3E3C4A" transform="translate(50,115)"/>
<path d="M0 0 C1.65 1.65 3.3 3.3 5 5 C3.23041995 8.5391601 1.27770061 10.52462317 -2.48828125 11.92578125 C-4.98163474 12.66990796 -7.47694619 13.36442156 -10 14 C-10 13.34 -10 12.68 -10 12 C-8.9275 11.5875 -7.855 11.175 -6.75 10.75 C-3.47628117 9.32606539 -1.10609736 7.98363792 1 5 C0.85974801 2.29294488 0.85974801 2.29294488 0 0 Z " fill="#3B3947" transform="translate(361,119)"/>
<path d="M0 0 C1.32 0 2.64 0 4 0 C4.33 1.32 4.66 2.64 5 4 C3.68 4 2.36 4 1 4 C0.67 4.99 0.34 5.98 0 7 C-0.598125 6.814375 -1.19625 6.62875 -1.8125 6.4375 C-4.16408762 5.77906313 -4.16408762 5.77906313 -7 7 C-7 6.01 -7 5.02 -7 4 C-5.02 3.67 -3.04 3.34 -1 3 C-0.67 2.01 -0.34 1.02 0 0 Z " fill="#2D2C3B" transform="translate(132,115)"/>
<path d="M0 0 C2.475 0.99 2.475 0.99 5 2 C4.01 2.33 3.02 2.66 2 3 C1.67 5.64 1.34 8.28 1 11 C0.01 11 -0.98 11 -2 11 C-2 12.65 -2 14.3 -2 16 C-3.125 14.375 -3.125 14.375 -4 12 C-3.125 8.75 -3.125 8.75 -2 6 C-1.34 6 -0.68 6 0 6 C0 4.02 0 2.04 0 0 Z " fill="#3E3C4A" transform="translate(174,99)"/>
<path d="M0 0 C1.32 0.33 2.64 0.66 4 1 C4 1.66 4 2.32 4 3 C5.7634375 2.9690625 5.7634375 2.9690625 7.5625 2.9375 C11.47413467 2.93052739 15.14497944 3.35749657 19 4 C18.67 4.66 18.34 5.32 18 6 C10.88658735 6.45164525 6.28453206 5.32797915 0 2 C0 1.34 0 0.68 0 0 Z " fill="#393749" transform="translate(328,128)"/>
<path d="M0 0 C0.99 0.33 1.98 0.66 3 1 C3 3.64 3 6.28 3 9 C2.34 9 1.68 9 1 9 C1.33 9.99 1.66 10.98 2 12 C1.01 13.485 1.01 13.485 0 15 C0 12.36 0 9.72 0 7 C-0.66 7 -1.32 7 -2 7 C-1.34 4.69 -0.68 2.38 0 0 Z " fill="#3F3E4B" transform="translate(266,91)"/>
<path d="M0 0 C-2.6666419 1.33332095 -4.16680303 0.67102033 -7 0 C-7 0.66 -7 1.32 -7 2 C-7.99 2.66 -8.98 3.32 -10 4 C-10.33 4.99 -10.66 5.98 -11 7 C-11.66 7 -12.32 7 -13 7 C-13.33 7.66 -13.66 8.32 -14 9 C-13.51319648 2.54985337 -13.51319648 2.54985337 -11.25 0.125 C-6.94160621 -2.02919689 -4.18870957 -2.63733566 0 0 Z " fill="#3D3A4E" transform="translate(125,91)"/>
<path d="M0 0 C0.268125 0.639375 0.53625 1.27875 0.8125 1.9375 C1.88667752 4.33131686 1.88667752 4.33131686 5 5 C6.29676812 9.61073111 5.71109139 13.33840089 5 18 C4.67 18 4.34 18 4 18 C4 16.35 4 14.7 4 13 C3.34 12.67 2.68 12.34 2 12 C1.59802999 9.67750658 1.27313343 7.34114367 1 5 C0.68033861 3.33065717 0.35268934 1.6626783 0 0 Z " fill="#3C3848" transform="translate(361,88)"/>
<path d="M0 0 C0.66 0 1.32 0 2 0 C1.63495936 5.66442374 0.9445679 10.00703705 -2 15 C-2.66 14.67 -3.32 14.34 -4 14 C-3.68160156 13.43667969 -3.36320313 12.87335938 -3.03515625 12.29296875 C-1.93294941 9.85147661 -1.64397458 7.9703111 -1.4375 5.3125 C-1.09964413 1.09964413 -1.09964413 1.09964413 0 0 Z " fill="#3A394A" transform="translate(179,84)"/>
<path d="M0 0 C0.99 0.33 1.98 0.66 3 1 C2.34 1.66 1.68 2.32 1 3 C0.83312552 5.58354218 0.83312552 5.58354218 1 8 C0.01 8.495 0.01 8.495 -1 9 C-1.90343684 10.88263881 -1.90343684 10.88263881 -2.625 13.0625 C-2.88539063 13.79597656 -3.14578125 14.52945313 -3.4140625 15.28515625 C-3.60742188 15.85105469 -3.80078125 16.41695312 -4 17 C-4.33 17 -4.66 17 -5 17 C-5 15.02 -5 13.04 -5 11 C-4.34 11 -3.68 11 -3 11 C-2.95101562 10.37351562 -2.90203125 9.74703125 -2.8515625 9.1015625 C-2.73941406 7.87566406 -2.73941406 7.87566406 -2.625 6.625 C-2.55539063 5.81289062 -2.48578125 5.00078125 -2.4140625 4.1640625 C-2 2 -2 2 0 0 Z " fill="#383644" transform="translate(165,59)"/>
<path d="M0 0 C0.33 0 0.66 0 1 0 C1.19656224 2.20754516 1.38185459 4.41609539 1.5625 6.625 C1.66691406 7.85476562 1.77132812 9.08453125 1.87890625 10.3515625 C1.99191061 13.75627462 1.69045563 16.67558398 1 20 C-1 18 -1 18 -1.125 15.0625 C-1.08375 14.051875 -1.0425 13.04125 -1 12 C-1 11.01 -1 10.02 -1 9 C-0.84872598 7.43593472 -0.68097478 5.87340748 -0.5 4.3125 C-0.4071875 3.50425781 -0.314375 2.69601563 -0.21875 1.86328125 C-0.1465625 1.24839844 -0.074375 0.63351563 0 0 Z " fill="#444254" transform="translate(74,98)"/>
<path d="M0 0 C3 1 3 1 4.1875 2.875 C6.84932791 5.99576375 10.16150394 6.79648104 14 8 C12.4375 9.25 12.4375 9.25 10 10 C7.3517473 9.08641064 5.15709652 7.78244292 3 6 C2.0625 3.75 2.0625 3.75 2 2 C1.34 2 0.68 2 0 2 C0 1.34 0 0.68 0 0 Z " fill="#39374B" transform="translate(268,124)"/>
<path d="M0 0 C0 0.66 0 1.32 0 2 C-1.423125 2.37125 -1.423125 2.37125 -2.875 2.75 C-6.08693191 3.6857077 -6.08693191 3.6857077 -7.375 6.125 C-7.58125 6.74375 -7.7875 7.3625 -8 8 C-8.66 8 -9.32 8 -10 8 C-10 9.65 -10 11.3 -10 13 C-10.66 13 -11.32 13 -12 13 C-11.54786421 8.13954021 -10.46858739 5.46858739 -7 2 C-4.5028228 0.7514114 -2.78683488 0 0 0 Z " fill="#3E3C4F" transform="translate(195,90)"/>
<path d="M0 0 C0.51949219 0.33773437 1.03898438 0.67546875 1.57421875 1.0234375 C5.28848007 3.39891701 8.80400915 5.55762815 13 7 C12.67 7.66 12.34 8.32 12 9 C11.34 9 10.68 9 10 9 C10 8.34 10 7.68 10 7 C9.113125 6.938125 8.22625 6.87625 7.3125 6.8125 C3.25918008 5.81828945 1.70168251 4.09898876 -1 1 C-0.67 0.67 -0.34 0.34 0 0 Z " fill="#38374D" transform="translate(217,125)"/>
<path d="M0 0 C1.32 0.99 2.64 1.98 4 3 C2.8553125 2.9071875 2.8553125 2.9071875 1.6875 2.8125 C-1.0347571 2.69992287 -1.0347571 2.69992287 -2.4375 4.5 C-4 6 -4 6 -7.1875 6.1875 C-8.5796875 6.0946875 -8.5796875 6.0946875 -10 6 C-9.67 5.01 -9.34 4.02 -9 3 C-5.5625 1.875 -5.5625 1.875 -2 1 C-1.34 0.67 -0.68 0.34 0 0 Z " fill="#343240" transform="translate(357,116)"/>
<path d="M0 0 C0.33 0.66 0.66 1.32 1 2 C1.66 2 2.32 2 3 2 C3 4.97 3 7.94 3 11 C1.02 11.99 1.02 11.99 -1 13 C-0.835 11.96875 -0.67 10.9375 -0.5 9.875 C-0.06678152 6.51755674 0.08235703 3.37663843 0 0 Z " fill="#373052" transform="translate(295,106)"/>
<path d="M0 0 C0.66 0.99 1.32 1.98 2 3 C1.01 4.98 0.02 6.96 -1 9 C-2.98 8.34 -4.96 7.68 -7 7 C-6.67 6.01 -6.34 5.02 -6 4 C-4.02 4.495 -4.02 4.495 -2 5 C-1.34 3.35 -0.68 1.7 0 0 Z " fill="#37364D" transform="translate(91,88)"/>
<path d="M0 0 C1.79093191 -0.08086147 3.58289628 -0.13912702 5.375 -0.1875 C6.87160156 -0.23970703 6.87160156 -0.23970703 8.3984375 -0.29296875 C9.25695312 -0.19628906 10.11546875 -0.09960938 11 0 C11.66 0.99 12.32 1.98 13 3 C12.67 3.66 12.34 4.32 12 5 C11.01 4.67 10.02 4.34 9 4 C9 3.34 9 2.68 9 2 C6.03 2 3.06 2 0 2 C0 1.34 0 0.68 0 0 Z " fill="#3E3B51" transform="translate(339,79)"/>
<path d="M0 0 C-3 1.5 -3 1.5 -6 3 C-7.04808041 4.97522846 -8.0520411 6.97481509 -9 9 C-9.66 8.67 -10.32 8.34 -11 8 C-9.82191948 4.6470016 -8.80593388 2.2447471 -6 0 C-3 -1 -3 -1 0 0 Z " fill="#434050" transform="translate(236,91)"/>
<path d="M0 0 C2.8203125 -0.29296875 2.8203125 -0.29296875 6.125 -0.1875 C7.76855469 -0.14689453 7.76855469 -0.14689453 9.4453125 -0.10546875 C10.28835937 -0.07066406 11.13140625 -0.03585938 12 0 C12 0.66 12 1.32 12 2 C7.38 2.33 2.76 2.66 -2 3 C-1.34 2.01 -0.68 1.02 0 0 Z " fill="#3E3B51" transform="translate(112,79)"/>
<path d="M0 0 C1.15941038 3.47823115 0.70820884 5.45895578 0 9 C-0.66 9 -1.32 9 -2 9 C-2.33 10.65 -2.66 12.3 -3 14 C-3.66 13.67 -4.32 13.34 -5 13 C-4.35780498 11.01964979 -3.71114356 9.04074744 -3.0625 7.0625 C-2.70285156 5.96035156 -2.34320313 4.85820313 -1.97265625 3.72265625 C-1 1 -1 1 0 0 Z " fill="#3A384D" transform="translate(172,75)"/>
<path d="M0 0 C3 1 3 1 4 3 C4.04022391 5.3329866 4.04320247 7.66706666 4 10 C3.01 9.67 2.02 9.34 1 9 C0.67 6.03 0.34 3.06 0 0 Z " fill="#3B384C" transform="translate(308,60)"/>
<path d="M0 0 C0.66 0 1.32 0 2 0 C2.66 0.66 3.32 1.32 4 2 C4.99 2.66 5.98 3.32 7 4 C7 4.33 7 4.66 7 5 C9.97 5.495 9.97 5.495 13 6 C13 6.33 13 6.66 13 7 C10.375 7.8125 10.375 7.8125 7 8 C3.50322263 6.06270495 1.28169999 3.84509998 0 0 Z " fill="#3E3B4D" transform="translate(184,115)"/>
<path d="M0 0 C3 3 3 3 3.29296875 5.91796875 C3.25816406 6.99691406 3.22335938 8.07585937 3.1875 9.1875 C3.16042969 10.27417969 3.13335937 11.36085938 3.10546875 12.48046875 C3.07066406 13.31191406 3.03585938 14.14335938 3 15 C2.01 15 1.02 15 0 15 C0 10.05 0 5.1 0 0 Z " fill="#3E3C50" transform="translate(60,96)"/>
<path d="M0 0 C0.99 0.33 1.98 0.66 3 1 C2.34 1.66 1.68 2.32 1 3 C0.01 3 -0.98 3 -2 3 C-1 1 -1 1 0 0 Z M-4 3 C-3.34 3.33 -2.68 3.66 -2 4 C-4.97 6.475 -4.97 6.475 -8 9 C-8.66 8.67 -9.32 8.34 -10 8 C-6.25 4.125 -6.25 4.125 -4 3 Z " fill="#3D3C4A" transform="translate(335,79)"/>
<path d="M0 0 C0.66 0.33 1.32 0.66 2 1 C2 1.66 2 2.32 2 3 C2.99 3 3.98 3 5 3 C5 3.66 5 4.32 5 5 C3.02 5.66 1.04 6.32 -1 7 C-1 3 -1 3 0 0 Z " fill="#3E3B53" transform="translate(74,79)"/>
<path d="M0 0 C0.33 0 0.66 0 1 0 C1.33 3.63 1.66 7.26 2 11 C1.01 11.33 0.02 11.66 -1 12 C-1.02698189 10.37509046 -1.04638757 8.75005367 -1.0625 7.125 C-1.07410156 6.22007813 -1.08570313 5.31515625 -1.09765625 4.3828125 C-1 2 -1 2 0 0 Z " fill="#393656" transform="translate(310,71)"/>
<path d="M0 0 C0.99 0.33 1.98 0.66 3 1 C0.7991151 3.47859908 -1.06372969 4.61210366 -4.1875 5.6875 C-4.90292969 5.93886719 -5.61835938 6.19023437 -6.35546875 6.44921875 C-6.89816406 6.63097656 -7.44085938 6.81273437 -8 7 C-8 6.01 -8 5.02 -8 4 C-6.865625 3.525625 -5.73125 3.05125 -4.5625 2.5625 C-1.24259834 1.36377917 -1.24259834 1.36377917 0 0 Z " fill="#3A3846" transform="translate(248,127)"/>
<path d="M0 0 C0.66 0.66 1.32 1.32 2 2 C0.38405168 4.04119788 -1.2856382 6.04072937 -3 8 C-3.66 8 -4.32 8 -5 8 C-4.64950425 4.75791433 -4.43778819 3.38472296 -1.9375 1.1875 C-1.298125 0.795625 -0.65875 0.40375 0 0 Z " fill="#37364B" transform="translate(339,90)"/>
<path d="M0 0 C0.33 0.99 0.66 1.98 1 3 C0.01 3.495 0.01 3.495 -1 4 C-0.67 2.68 -0.34 1.36 0 0 Z M-3 4 C-2.34 4 -1.68 4 -1 4 C-1.5859375 10.15234375 -1.5859375 10.15234375 -2 12 C-2.99 12.495 -2.99 12.495 -4 13 C-4.125 6.25 -4.125 6.25 -3 4 Z " fill="#393748" transform="translate(324,88)"/>
<path d="M0 0 C0 3.14668286 -0.52735129 4.31458176 -2 7 C-2.33 7.66 -2.66 8.32 -3 9 C-3.28875 8.360625 -3.5775 7.72125 -3.875 7.0625 C-4.82823451 4.84793921 -4.82823451 4.84793921 -7 4 C-4.69 2.68 -2.38 1.36 0 0 Z " fill="#393147" transform="translate(29,100)"/>
<path d="M0 0 C0 3.65351863 -0.88942301 5.06026776 -3 8 C-5.1875 9.3125 -5.1875 9.3125 -7 10 C-2.87804878 1.43902439 -2.87804878 1.43902439 0 0 Z " fill="#302D44" transform="translate(219,84)"/>
<path d="M0 0 C0 0.66 0 1.32 0 2 C0.66 2.33 1.32 2.66 2 3 C0.865625 3.12375 -0.26875 3.2475 -1.4375 3.375 C-3.2009375 3.684375 -3.2009375 3.684375 -5 4 C-5.33 4.66 -5.66 5.32 -6 6 C-6.66 6 -7.32 6 -8 6 C-7.8125 4.125 -7.8125 4.125 -7 2 C-4.55683729 0.74709605 -2.75474605 0 0 0 Z " fill="#4A475A" transform="translate(306,59)"/>
<path d="M0 0 C1.45922693 0.11409593 2.91740598 0.24165544 4.375 0.375 C5.59316406 0.47941406 5.59316406 0.47941406 6.8359375 0.5859375 C9 1 9 1 11 3 C7.7 3 4.4 3 1 3 C0.67 2.01 0.34 1.02 0 0 Z " fill="#3E3D49" transform="translate(186,131)"/>
<path d="M0 0 C1.43836751 0.11458693 2.87570966 0.24209116 4.3125 0.375 C5.51326172 0.47941406 5.51326172 0.47941406 6.73828125 0.5859375 C9 1 9 1 12 3 C7.06729471 4.6442351 4.45975807 3.18615592 0 1 C0 0.67 0 0.34 0 0 Z " fill="#3B3846" transform="translate(107,130)"/>
<path d="M0 0 C2.0625 0.4375 2.0625 0.4375 4 1 C3.67 3.31 3.34 5.62 3 8 C1.45428722 5.68143083 0.20381448 3.49361571 -1 1 C-0.67 0.67 -0.34 0.34 0 0 Z " fill="#464257" transform="translate(128,120)"/>
<path d="M0 0 C0.99 0.495 0.99 0.495 2 1 C2.75 4.4375 2.75 4.4375 3 8 C2.34 8.66 1.68 9.32 1 10 C0 9 0 9 -0.09765625 6.93359375 C-0.08605469 6.10988281 -0.07445312 5.28617187 -0.0625 4.4375 C-0.05347656 3.61121094 -0.04445312 2.78492187 -0.03515625 1.93359375 C-0.02355469 1.29550781 -0.01195312 0.65742187 0 0 Z " fill="#3D3B4D" transform="translate(183,104)"/>
<path d="M0 0 C1.32 0.66 2.64 1.32 4 2 C4 2.66 4 3.32 4 4 C4.99 4.33 5.98 4.66 7 5 C6.01 5.33 5.02 5.66 4 6 C1.3125 4.5625 1.3125 4.5625 -1 3 C-0.67 2.01 -0.34 1.02 0 0 Z " fill="#393748" transform="translate(196,91)"/>
<path d="M0 0 C0 0.66 0 1.32 0 2 C-5.75 5 -5.75 5 -8 5 C-8 4.01 -8 3.02 -8 2 C-2.25 0 -2.25 0 0 0 Z " fill="#454258" transform="translate(340,108)"/>
<path d="M0 0 C5.875 1.875 5.875 1.875 7 3 C7.04063832 4.66617115 7.042721 6.33388095 7 8 C6.1028125 6.7934375 6.1028125 6.7934375 5.1875 5.5625 C3.19052724 2.77672016 3.19052724 2.77672016 0 2 C0 1.34 0 0.68 0 0 Z " fill="#38364C" transform="translate(236,92)"/>
<path d="M0 0 C0.99 0.33 1.98 0.66 3 1 C3 3.31 3 5.62 3 8 C2.01 8.33 1.02 8.66 0 9 C0.33 8.01 0.66 7.02 1 6 C0.72428861 3.99124558 0.39764263 1.98821313 0 0 Z " fill="#323046" transform="translate(140,90)"/>
<path d="M0 0 C0.33 0.66 0.66 1.32 1 2 C0.06553465 4.03144641 -0.93224776 6.03533587 -2 8 C-2.66 7.34 -3.32 6.68 -4 6 C-3.625 3.375 -3.625 3.375 -3 1 C-2.01 0.67 -1.02 0.34 0 0 Z " fill="#3A3444" transform="translate(101,90)"/>
<path d="M0 0 C3.86107457 2.57404971 3.94319692 4.61020259 5 9 C2.5 6.75 2.5 6.75 0 4 C0 2.68 0 1.36 0 0 Z " fill="#3A3746" transform="translate(171,116)"/>
<path d="M0 0 C1.98 0 3.96 0 6 0 C3 2 3 2 0 2 C0 1.34 0 0.68 0 0 Z " fill="#19191E" transform="translate(132,112)"/>
<path d="M0 0 C1 4 1 4 1 4 Z " fill="#1F1F2D" transform="translate(132,126)"/>
<path d="M0 0 C2 1 2 1 2 1 Z " fill="#202020" transform="translate(375,133)"/>
<path d="M0 0 C2 1 2 1 2 1 Z " fill="#000000" transform="translate(356,112)"/>
<path d="" fill="#191959" transform="translate(0,0)"/>
<path d="" fill="#000000" transform="translate(0,0)"/>
<path d="" fill="#000000" transform="translate(0,0)"/>
<path d="" fill="#555555" transform="translate(0,0)"/>
<path d="" fill="#404040" transform="translate(0,0)"/>
<path d="" fill="#000000" transform="translate(0,0)"/>
<path d="" fill="#000000" transform="translate(0,0)"/>
<path d="" fill="#333333" transform="translate(0,0)"/>
</svg>
